<?xml version="1.0" standalone="no"?>
<!DOCTYPE svg PUBLIC "-//W3C//DTD SVG 20010904//EN"
 "http://www.w3.org/TR/2001/REC-SVG-20010904/DTD/svg10.dtd">
<svg version="1.0" xmlns="http://www.w3.org/2000/svg"
 width="2000.000000pt" height="2000.000000pt" viewBox="0 0 2000.000000 2000.000000"
 preserveAspectRatio="xMidYMid meet">
<metadata>
Created by potrace 1.14, written by Peter Selinger 2001-2017
</metadata>
<g transform="translate(0.000000,2000.000000) scale(0.100000,-0.100000)"
fill="#000000" stroke="none">
<path d="M9525 19989 c-1834 -90 -3570 -662 -5080 -1674 -1332 -893 -2419
-2074 -3200 -3480 -121 -217 -341 -667 -442 -905 -450 -1056 -696 -2092 -785
-3305 -16 -223 -16 -1027 0 -1250 52 -711 149 -1312 313 -1930 662 -2510 2295
-4682 4524 -6020 1283 -770 2707 -1238 4195 -1380 348 -33 508 -39 950 -39
442 0 602 6 950 39 1601 153 3135 686 4480 1558 1747 1134 3101 2783 3867
4711 386 973 606 1955 685 3061 16 232 16 1022 0 1250 -103 1418 -431 2634
-1038 3846 -903 1806 -2333 3297 -4104 4281 -1483 825 -3167 1255 -4875 1246
-154 0 -352 -5 -440 -9z m-3861 -4530 c336 -89 676 -179 756 -200 80 -22 204
-54 275 -73 477 -126 1649 -436 5030 -1331 2112 -559 3899 -1030 3970 -1046
73 -17 161 -44 200 -63 177 -84 300 -244 340 -443 14 -70 15 -402 13 -3278 -3
-3081 -4 -3202 -21 -3255 -71 -211 -228 -367 -431 -429 l-68 -21 -5728 0
-5728 0 -68 21 c-203 62 -360 218 -431 429 -17 53 -18 174 -21 3255 -2 2876
-1 3208 13 3278 47 233 201 404 435 483 53 18 199 19 4538 24 l4483 5 -4153
1099 c-2284 604 -4172 1106 -4194 1116 -99 42 -173 146 -182 256 -11 145 70
271 205 320 85 30 125 22 767 -147z"/>
<path d="M7328 11559 c-598 -40 -1169 -301 -1595 -726 -407 -408 -665 -948
-723 -1518 -18 -166 -8 -495 19 -651 26 -154 71 -327 116 -451 45 -122 168
-373 231 -473 145 -228 383 -494 575 -642 348 -269 746 -442 1172 -510 204
-32 550 -32 754 0 433 69 843 250 1193 526 102 81 311 292 391 396 202 260
354 552 438 842 294 1010 -64 2088 -901 2714 -395 295 -845 460 -1348 494
-158 11 -153 11 -322 -1z"/>
<path d="M11258 7477 c-220 -77 -344 -279 -314 -512 10 -83 10 -116 1 -210
-25 -238 148 -456 393 -496 227 -38 460 116 518 341 13 50 15 86 9 155 -9 124
-9 131 5 207 37 196 -77 407 -267 495 -70 33 -88 37 -178 40 -86 3 -110 0
-167 -20z"/>
<path d="M12840 7485 c-150 -43 -286 -180 -325 -330 -18 -73 -19 -174 -2 -242
9 -35 10 -58 4 -74 -18 -44 -12 -208 11 -270 60 -166 195 -278 370 -309 196
-35 408 79 494 267 27 59 32 82 36 170 2 60 0 115 -7 133 -8 24 -7 46 4 93 51
217 -49 428 -251 529 -78 38 -90 41 -181 44 -67 3 -115 -1 -153 -11z"/>
<path d="M14416 7489 c-21 -5 -70 -26 -107 -45 -187 -99 -287 -323 -234 -526
11 -43 12 -64 4 -88 -7 -17 -10 -75 -7 -134 3 -95 6 -109 40 -178 69 -138 198
-233 355 -260 61 -10 83 -9 147 4 177 39 299 143 358 307 23 62 29 226 11 271
-7 17 -6 39 3 75 18 67 17 167 -1 240 -40 153 -177 290 -330 329 -64 17 -177
19 -239 5z"/>
</g>
</svg>
